<svg width="200" height="132" viewBox="0 0 200 132" fill="none" xmlns="http://www.w3.org/2000/svg">
<path fill-rule="evenodd" clip-rule="evenodd" d="M200 0H0V44H83.9675L81.4104 38.7341L86.2646 44H91.7419L90.2731 34.4661L94.8262 44H98.3786L100 33L101.621 44H105.174L109.727 34.4661L108.258 44H113.735L118.59 38.7341L116.032 44H200V0Z" fill="#ED2024"/>
<path fill-rule="evenodd" clip-rule="evenodd" d="M83.9675 44H0V88H79.0584L87.0998 76.2876L71.4212 82.5L84.6406 72.0281L67.8274 73.3432L83.5461 67.233L67.0923 63.5339L83.9137 62.3284L69.2812 53.9437L85.7106 57.75L74.1996 45.4248L88.7771 53.9046L83.9675 44ZM80.2831 88H88.0944L90.7052 79.6329L80.2831 88ZM90.9166 88H95.1162L95.1365 81.767L90.9166 88ZM98.3231 88H101.677L100 82.5L98.3231 88ZM104.884 88H109.083L104.863 81.767L104.884 88ZM111.906 88H119.717L109.295 79.6329L111.906 88ZM120.942 88H200V44H116.032L111.223 53.9046L125.8 45.4248L114.289 57.75L130.719 53.9437L116.086 62.3284L132.908 63.5339L116.454 67.233L132.173 73.3432L115.359 72.0281L128.579 82.5L112.9 76.2876L120.942 88ZM113.735 44H108.258L107.159 51.134L113.735 44ZM105.174 44H101.621L102.459 49.6843L105.174 44ZM98.3786 44H94.8262L97.5408 49.6843L98.3786 44ZM91.7419 44H86.2646L92.8409 51.134L91.7419 44Z" fill="white"/>
<path fill-rule="evenodd" clip-rule="evenodd" d="M77.5543 90.1907L79.0584 88H0V132H200V88H120.942L122.446 90.1907L119.717 88H111.906L114.318 95.732L109.083 88H104.884L104.918 98.6314L101.677 88H98.3231L95.0816 98.6314L95.1162 88H90.9166L85.6818 95.732L88.0944 88H80.2831L77.5543 90.1907Z" fill="#278E43"/>
<path d="M113.735 44L107.159 51.134L108.258 44L109.727 34.4661L105.174 44L102.459 49.6843L101.621 44L100 33L98.3786 44L97.5408 49.6843L94.8262 44L90.2731 34.4661L91.7419 44L92.8409 51.134L86.2646 44L81.4104 38.7341L83.9675 44L88.7771 53.9046L74.1996 45.4248L85.7106 57.75L69.2812 53.9437L83.9137 62.3284L67.0923 63.5339L83.5461 67.233L67.8274 73.3432L84.6406 72.0281L71.4212 82.5L87.0998 76.2876L79.0584 88L77.5543 90.1907L80.2831 88L90.7052 79.6329L88.0944 88L85.6818 95.732L90.9166 88L95.1365 81.767L95.1162 88L95.0816 98.6314L98.3231 88L100 82.5L101.677 88L104.918 98.6314L104.884 88L104.863 81.767L109.083 88L114.318 95.732L111.906 88L109.295 79.6329L119.717 88L122.446 90.1907L120.942 88L112.9 76.2876L128.579 82.5L115.359 72.0281L132.173 73.3432L116.454 67.233L132.908 63.5339L116.086 62.3284L130.719 53.9437L114.289 57.75L125.8 45.4248L111.223 53.9046L116.032 44L118.59 38.7341L113.735 44Z" fill="#FEBD11"/>
<!-- Logo: bottom center of green footer stripe (y 88–132) -->
<svg x="70" y="91" width="60" height="36" viewBox="0 0 500 454" preserveAspectRatio="xMidYMid meet" aria-hidden="true">
<defs>
<filter id="kurdistan_logo_filter" x="0" y="0" width="500" height="454" filterUnits="userSpaceOnUse" color-interpolation-filters="sRGB">
<feFlood flood-opacity="0" result="BackgroundImageFix"/>
<feBlend mode="normal" in="SourceGraphic" in2="BackgroundImageFix" result="shape"/>
<feColorMatrix in="SourceAlpha" type="matrix" values="0 0 0 0 0 0 0 0 0 0 0 0 0 0 0 0 0 0 127 0" result="hardAlpha"/>
<feOffset/>
<feGaussianBlur stdDeviation="5"/>
<feComposite in2="hardAlpha" operator="arithmetic" k2="-1" k3="1"/>
<feColorMatrix type="matrix" values="0 0 0 0 1 0 0 0 0 1 0 0 0 0 1 0 0 0 1 0"/>
<feBlend mode="normal" in2="shape" result="effect1_innerShadow_logo"/>
<feColorMatrix in="SourceAlpha" type="matrix" values="0 0 0 0 0 0 0 0 0 0 0 0 0 0 0 0 0 0 127 0" result="hardAlpha"/>
<feOffset/>
<feGaussianBlur stdDeviation="0.6"/>
<feComposite in2="hardAlpha" operator="arithmetic" k2="-1" k3="1"/>
<feColorMatrix type="matrix" values="0 0 0 0 1 0 0 0 0 1 0 0 0 0 1 0 0 0 1 0"/>
<feBlend mode="normal" in2="effect1_innerShadow_logo" result="effect2_innerShadow_logo"/>
</filter>
<radialGradient id="kurdistan_logo_paint" cx="0" cy="0" r="1" gradientUnits="userSpaceOnUse" gradientTransform="translate(-1.01851 454) scale(496.049 500.428)">
<stop offset="0.3" stop-color="white"/>
<stop offset="1" stop-color="white" stop-opacity="0"/>
</radialGradient>
</defs>
<g filter="url(#kurdistan_logo_filter)">
<path fill-rule="evenodd" clip-rule="evenodd" d="M249.996 0C206.924 0.00994448 166.83 22.397 143.984 59.2624L18.9761 261.04C-5.11155 299.947 -6.32097 348.992 15.6555 389.023L15.7044 389.072C37.7318 429.117 79.5656 453.99 124.989 454H375.004C420.441 454 462.306 429.129 484.337 389.072C506.324 349.035 505.114 299.953 481.017 261.04L356.009 59.2624C333.155 22.3979 293.074 0 249.996 0ZM313.598 86.0205C291.65 50.5983 245.344 39.813 210.222 61.9313C175.101 84.076 164.404 130.784 186.344 166.219L311.352 367.997C333.304 403.43 379.602 414.224 414.727 392.086C449.833 369.935 460.545 323.227 438.606 287.798L313.598 86.0205ZM49.9585 327.898C49.9585 286.108 83.5395 252.231 124.963 252.231C166.387 252.231 199.968 286.108 199.968 327.898C199.967 369.686 166.387 403.564 124.963 403.564C83.54 403.564 49.9594 369.686 49.9585 327.898Z" fill="#EADFFF"/>
<path fill-rule="evenodd" clip-rule="evenodd" d="M249.996 0C206.924 0.00994448 166.83 22.397 143.984 59.2624L18.9761 261.04C-5.11155 299.947 -6.32097 348.992 15.6555 389.023L15.7044 389.072C37.7318 429.117 79.5656 453.99 124.989 454H375.004C420.441 454 462.306 429.129 484.337 389.072C506.324 349.035 505.114 299.953 481.017 261.04L356.009 59.2624C333.155 22.3979 293.074 0 249.996 0ZM313.598 86.0205C291.65 50.5983 245.344 39.813 210.222 61.9313C175.101 84.076 164.404 130.784 186.344 166.219L311.352 367.997C333.304 403.43 379.602 414.224 414.727 392.086C449.833 369.935 460.545 323.227 438.606 287.798L313.598 86.0205ZM49.9585 327.898C49.9585 286.108 83.5395 252.231 124.963 252.231C166.387 252.231 199.968 286.108 199.968 327.898C199.967 369.686 166.387 403.564 124.963 403.564C83.54 403.564 49.9594 369.686 49.9585 327.898Z" fill="url(#kurdistan_logo_paint)"/>
</g>
</svg>
</svg>
